<?xml version="1.0" encoding="UTF-8" standalone="no"?>
<!-- Created with Inkscape (http://www.inkscape.org/) -->

<svg
   xmlns:ns1="http://sozi.baierouge.fr"
   xmlns:dc="http://purl.org/dc/elements/1.1/"
   xmlns:cc="http://creativecommons.org/ns#"
   xmlns:rdf="http://www.w3.org/1999/02/22-rdf-syntax-ns#"
   xmlns:svg="http://www.w3.org/2000/svg"
   xmlns="http://www.w3.org/2000/svg"
   xmlns:sodipodi="http://sodipodi.sourceforge.net/DTD/sodipodi-0.dtd"
   xmlns:inkscape="http://www.inkscape.org/namespaces/inkscape"
   width="183.83943mm"
   height="93.120125mm"
   viewBox="0 0 651.39959 329.9532"
   id="svg2"
   version="1.1"
   inkscape:version="0.91 r13725"
   sodipodi:docname="network_architecture.svg"
   inkscape:export-filename="/Users/PEM/Desktop/architecture.png"
   inkscape:export-xdpi="54.360001"
   inkscape:export-ydpi="54.360001">
  <defs
     id="defs4" />
  <sodipodi:namedview
     id="base"
     pagecolor="#ffffff"
     bordercolor="#666666"
     borderopacity="1.0"
     inkscape:pageopacity="0.0"
     inkscape:pageshadow="2"
     inkscape:zoom="1.7597366"
     inkscape:cx="554.67976"
     inkscape:cy="115.31392"
     inkscape:document-units="px"
     inkscape:current-layer="layer1"
     showgrid="true"
     objecttolerance="10000"
     guidetolerance="10000"
     inkscape:window-width="1362"
     inkscape:window-height="723"
     inkscape:window-x="0"
     inkscape:window-y="0"
     inkscape:window-maximized="1"
     fit-margin-top="0"
     fit-margin-left="0"
     fit-margin-right="0"
     fit-margin-bottom="0">
    <inkscape:grid
       type="xygrid"
       id="grid4136"
       spacingx="10"
       spacingy="10"
       originx="-29.398481"
       originy="-390.54688" />
  </sodipodi:namedview>
  <metadata
     id="metadata7">
    <rdf:RDF>
      <cc:Work
         rdf:about="">
        <dc:format>image/svg+xml</dc:format>
        <dc:type
           rdf:resource="http://purl.org/dc/dcmitype/StillImage" />
        <dc:title></dc:title>
      </cc:Work>
    </rdf:RDF>
  </metadata>
  <g
     inkscape:label="Calque 1"
     inkscape:groupmode="layer"
     id="layer1"
     transform="translate(-29.398476,-331.86224)">
    <rect
       style="opacity:1;fill:#6598ff;fill-opacity:0.19607843;stroke:#003399;stroke-width:0.99999988"
       id="rect4754"
       width="150.39952"
       height="108.95319"
       x="109.89848"
       y="552.36224"
       rx="8.3752298"
       ry="8.3752298" />
    <rect
       ry="8.3752298"
       rx="8.3752298"
       y="332.36224"
       x="29.898476"
       height="108.95319"
       width="150.39952"
       id="rect6942"
       style="opacity:1;fill:#6598ff;fill-opacity:0.19607843;stroke:#003399;stroke-width:0.99999988" />
    <g
       id="g7116"
       transform="matrix(0.38345525,0,0,0.38345525,23.898305,373.74475)">
      <g
         id="g7082" />
      <g
         id="g7084" />
      <g
         id="g7086" />
      <g
         id="g7088" />
      <g
         id="g7090">
        <circle
           id="circle7092"
           r="16.966"
           cy="90.016998"
           cx="337.36499"
           style="fill:#dd4814" />
        <path
           id="path7094"
           d="m 326.783,87.978 c -1.127,0 -2.036,0.912 -2.036,2.039 0,1.123 0.909,2.037 2.036,2.037 1.128,0 2.039,-0.914 2.039,-2.037 0,-1.127 -0.911,-2.039 -2.039,-2.039 z m 14.555,9.266 c -0.976,0.559 -1.308,1.807 -0.747,2.779 0.563,0.977 1.809,1.309 2.784,0.748 0.975,-0.562 1.31,-1.809 0.747,-2.783 -0.563,-0.975 -1.81,-1.309 -2.784,-0.744 z m -10.125,-7.227 c 0,-2.016 0.998,-3.797 2.529,-4.873 l -1.488,-2.498 c -1.784,1.191 -3.112,3.014 -3.664,5.148 0.646,0.525 1.055,1.324 1.055,2.223 0,0.893 -0.408,1.691 -1.055,2.219 0.552,2.133 1.88,3.955 3.664,5.146 l 1.488,-2.496 c -1.531,-1.076 -2.529,-2.855 -2.529,-4.869 z m 5.952,-5.957 c 3.112,0 5.663,2.385 5.931,5.43 l 2.905,-0.047 c -0.144,-2.244 -1.124,-4.26 -2.631,-5.742 -0.776,0.291 -1.672,0.25 -2.445,-0.199 -0.773,-0.447 -1.26,-1.199 -1.394,-2.02 -0.754,-0.207 -1.547,-0.322 -2.366,-0.322 -1.408,0 -2.741,0.332 -3.922,0.918 l 1.415,2.537 c 0.762,-0.356 1.613,-0.555 2.507,-0.555 z m 0,11.908 c -0.895,0 -1.745,-0.197 -2.507,-0.553 l -1.415,2.537 c 1.181,0.588 2.514,0.916 3.922,0.916 0.819,0 1.612,-0.111 2.366,-0.32 0.134,-0.82 0.62,-1.572 1.394,-2.021 0.775,-0.447 1.669,-0.49 2.445,-0.195 1.507,-1.484 2.487,-3.5 2.631,-5.746 l -2.905,-0.041 c -0.268,3.04 -2.819,5.423 -5.931,5.423 z m 4.173,-13.179 c 0.974,0.561 2.221,0.229 2.782,-0.748 0.563,-0.971 0.229,-2.219 -0.745,-2.781 -0.976,-0.562 -2.221,-0.229 -2.784,0.746 -0.561,0.974 -0.229,2.22 0.747,2.783 z"
           inkscape:connector-curvature="0"
           style="fill:#ffffff" />
        <g
           id="g7096">
          <path
             id="path7098"
             d="m 104.798,134.53 c -1.725,0.432 -3.999,0.889 -6.826,1.374 -2.83,0.483 -6.102,0.726 -9.817,0.726 -3.23,0 -5.952,-0.472 -8.159,-1.413 -2.209,-0.941 -3.986,-2.274 -5.332,-3.998 -1.348,-1.724 -2.316,-3.757 -2.908,-6.101 -0.594,-2.341 -0.889,-4.939 -0.889,-7.795 l 0,-23.589 7.513,0 0,21.973 c 0,5.117 0.808,8.779 2.424,10.986 1.616,2.211 4.334,3.314 8.159,3.314 0.809,0 1.642,-0.029 2.505,-0.083 0.86,-0.053 1.67,-0.122 2.425,-0.202 0.752,-0.081 1.439,-0.161 2.059,-0.242 0.619,-0.08 1.064,-0.173 1.334,-0.283 l 0,-35.463 7.514,0 0,40.796 z"
             inkscape:connector-curvature="0"
             style="fill:#dd4814" />
          <path
             id="path7100"
             d="m 123.134,95.591 c 0.915,-0.592 2.304,-1.211 4.161,-1.857 1.857,-0.646 3.999,-0.969 6.422,-0.969 3.016,0 5.696,0.539 8.039,1.615 2.342,1.078 4.322,2.584 5.938,4.523 1.614,1.939 2.839,4.256 3.675,6.947 0.834,2.695 1.253,5.656 1.253,8.888 0,3.392 -0.5,6.45 -1.494,9.168 -0.999,2.72 -2.412,5.021 -4.242,6.907 -1.832,1.885 -4.039,3.34 -6.625,4.362 -2.584,1.023 -5.493,1.535 -8.725,1.535 -3.502,0 -6.598,-0.244 -9.289,-0.728 -2.693,-0.485 -4.902,-0.97 -6.625,-1.454 l 0,-60.181 7.513,-1.293 0,22.537 z m 0,33.606 c 0.755,0.216 1.818,0.42 3.192,0.605 1.373,0.191 3.082,0.284 5.129,0.284 4.039,0 7.271,-1.334 9.693,-3.999 2.425,-2.666 3.637,-6.45 3.637,-11.349 0,-2.153 -0.216,-4.173 -0.646,-6.062 -0.432,-1.883 -1.132,-3.514 -2.102,-4.885 -0.969,-1.375 -2.222,-2.451 -3.756,-3.232 -1.534,-0.781 -3.38,-1.172 -5.533,-1.172 -2.049,0 -3.932,0.352 -5.654,1.051 -1.727,0.701 -3.045,1.428 -3.96,2.182 l 0,26.577 z"
             inkscape:connector-curvature="0"
             style="fill:#dd4814" />
          <path
             id="path7102"
             d="m 194.546,134.53 c -1.725,0.432 -4,0.889 -6.826,1.374 -2.827,0.483 -6.1,0.726 -9.816,0.726 -3.23,0 -5.95,-0.472 -8.158,-1.413 -2.209,-0.941 -3.986,-2.274 -5.331,-3.998 -1.348,-1.724 -2.315,-3.757 -2.909,-6.101 -0.593,-2.341 -0.889,-4.939 -0.889,-7.795 l 0,-23.589 7.512,0 0,21.973 c 0,5.117 0.809,8.779 2.424,10.986 1.617,2.211 4.336,3.314 8.159,3.314 0.81,0 1.644,-0.029 2.505,-0.083 0.859,-0.053 1.668,-0.122 2.424,-0.202 0.754,-0.081 1.44,-0.161 2.061,-0.242 0.618,-0.08 1.062,-0.173 1.331,-0.283 l 0,-35.463 7.514,0 0,40.796 z"
             inkscape:connector-curvature="0"
             style="fill:#dd4814" />
          <path
             id="path7104"
             d="m 205.37,94.947 c 1.723,-0.432 4.01,-0.889 6.867,-1.375 2.852,-0.484 6.138,-0.727 9.854,-0.727 3.34,0 6.113,0.473 8.32,1.414 2.208,0.943 3.972,2.262 5.293,3.959 1.317,1.695 2.246,3.729 2.786,6.098 0.538,2.373 0.808,4.984 0.808,7.837 l 0,23.588 -7.513,0 0,-21.973 c 0,-2.584 -0.176,-4.791 -0.525,-6.624 -0.351,-1.833 -0.929,-3.313 -1.737,-4.442 -0.808,-1.133 -1.885,-1.953 -3.231,-2.465 -1.346,-0.514 -3.018,-0.768 -5.007,-0.768 -0.811,0 -1.645,0.027 -2.504,0.08 -0.862,0.055 -1.686,0.121 -2.464,0.203 -0.784,0.08 -1.481,0.176 -2.102,0.281 -0.62,0.109 -1.063,0.189 -1.333,0.242 l 0,35.464 -7.512,0 0,-40.792 z"
             inkscape:connector-curvature="0"
             style="fill:#dd4814" />
          <path
             id="path7106"
             d="m 256.665,93.734 15.914,0 0,6.301 -15.914,0 0,19.388 c 0,2.1 0.161,3.84 0.485,5.212 0.324,1.372 0.809,2.451 1.454,3.229 0.646,0.781 1.452,1.333 2.423,1.656 0.97,0.324 2.1,0.487 3.392,0.487 2.314,0 4.147,-0.258 5.494,-0.771 1.345,-0.511 2.262,-0.874 2.748,-1.09 l 1.614,6.141 c -0.755,0.378 -2.088,0.863 -3.999,1.453 -1.912,0.593 -4.078,0.889 -6.502,0.889 -2.856,0 -5.212,-0.362 -7.07,-1.089 -1.856,-0.729 -3.351,-1.817 -4.482,-3.273 -1.131,-1.453 -1.925,-3.243 -2.382,-5.372 -0.46,-2.126 -0.688,-4.59 -0.688,-7.391 l 0,-37.483 7.513,-1.293 0,13.006 z"
             inkscape:connector-curvature="0"
             style="fill:#dd4814" />
          <path
             id="path7108"
             d="m 313.455,134.53 c -1.726,0.432 -3.999,0.889 -6.826,1.374 -2.827,0.483 -6.101,0.726 -9.814,0.726 -3.232,0 -5.952,-0.472 -8.161,-1.413 -2.209,-0.941 -3.986,-2.274 -5.33,-3.998 -1.348,-1.724 -2.316,-3.757 -2.91,-6.101 -0.592,-2.341 -0.889,-4.939 -0.889,-7.795 l 0,-23.589 7.515,0 0,21.973 c 0,5.117 0.808,8.779 2.424,10.986 1.614,2.211 4.334,3.314 8.159,3.314 0.807,0 1.641,-0.029 2.504,-0.083 0.859,-0.053 1.667,-0.122 2.422,-0.202 0.754,-0.081 1.441,-0.161 2.061,-0.242 0.617,-0.08 1.063,-0.173 1.334,-0.283 l 0,-35.463 7.513,0 0,40.796 z"
             inkscape:connector-curvature="0"
             style="fill:#dd4814" />
        </g>
      </g>
    </g>
    <path
       id="path7854"
       d="m 184.64387,576.71281 c -17.22274,0 -31.38752,14.00366 -31.38752,31.38752 0,17.22263 14.00342,31.22653 31.38752,31.22653 17.22262,0 31.3874,-14.00354 31.3874,-31.38764 -0.16099,-17.22275 -14.16478,-31.22641 -31.3874,-31.22641 z m 0,61.32632 c -16.57912,0 -30.09979,-13.52067 -30.09979,-30.09991 0,-16.579 13.52067,-30.09968 30.09979,-30.09968 16.579,0 30.09967,13.5208 30.09967,30.09968 0,16.57912 -13.52067,30.09991 -30.09967,30.09991 z m 14.48641,-48.44939 -3.05821,0 -11.4282,16.41812 -11.58932,-16.41812 -3.05821,0 13.03781,18.1886 -13.3598,18.67147 3.05833,0 11.75019,-16.90099 11.91108,16.90099 3.05832,0 -13.35979,-18.67147 13.0378,-18.1886 z"
       inkscape:connector-curvature="0"
       style="fill:#333333" />
    <rect
       style="opacity:1;fill:#ffffff;fill-opacity:1;stroke:#003399;stroke-width:1.16318953"
       id="rect4644"
       width="109.13123"
       height="40.03986"
       x="50.081593"
       y="352.44391"
       ry="9.9184027"
       rx="9.9184027" />
    <text
       xml:space="preserve"
       style="font-style:normal;font-weight:normal;font-size:10px;line-height:125%;font-family:sans-serif;text-align:center;letter-spacing:0px;word-spacing:0px;text-anchor:middle;fill:#000000;fill-opacity:1;stroke:none;stroke-width:1px;stroke-linecap:butt;stroke-linejoin:miter;stroke-opacity:1"
       x="104.04883"
       y="369.37247"
       id="text4646"
       sodipodi:linespacing="125%"><tspan
         sodipodi:role="line"
         id="tspan4648"
         x="104.04883"
         y="369.37247">dev</tspan><tspan
         sodipodi:role="line"
         x="104.04883"
         y="381.87247"
         id="tspan4665">192.168.1.50</tspan></text>
    <rect
       style="opacity:1;fill:#6598ff;fill-opacity:0.19607843;stroke:#003399;stroke-width:0.99999988"
       id="rect4667"
       width="150.39952"
       height="108.95319"
       x="189.89848"
       y="332.36224"
       rx="8.3752298"
       ry="8.3752298" />
    <g
       transform="matrix(0.38345525,0,0,0.38345525,183.89831,373.74475)"
       id="g4669">
      <g
         id="g4671" />
      <g
         id="g4673" />
      <g
         id="g4675" />
      <g
         id="g4677" />
      <g
         id="g4679">
        <circle
           style="fill:#dd4814"
           cx="337.36499"
           cy="90.016998"
           r="16.966"
           id="circle4681" />
        <path
           style="fill:#ffffff"
           inkscape:connector-curvature="0"
           d="m 326.783,87.978 c -1.127,0 -2.036,0.912 -2.036,2.039 0,1.123 0.909,2.037 2.036,2.037 1.128,0 2.039,-0.914 2.039,-2.037 0,-1.127 -0.911,-2.039 -2.039,-2.039 z m 14.555,9.266 c -0.976,0.559 -1.308,1.807 -0.747,2.779 0.563,0.977 1.809,1.309 2.784,0.748 0.975,-0.562 1.31,-1.809 0.747,-2.783 -0.563,-0.975 -1.81,-1.309 -2.784,-0.744 z m -10.125,-7.227 c 0,-2.016 0.998,-3.797 2.529,-4.873 l -1.488,-2.498 c -1.784,1.191 -3.112,3.014 -3.664,5.148 0.646,0.525 1.055,1.324 1.055,2.223 0,0.893 -0.408,1.691 -1.055,2.219 0.552,2.133 1.88,3.955 3.664,5.146 l 1.488,-2.496 c -1.531,-1.076 -2.529,-2.855 -2.529,-4.869 z m 5.952,-5.957 c 3.112,0 5.663,2.385 5.931,5.43 l 2.905,-0.047 c -0.144,-2.244 -1.124,-4.26 -2.631,-5.742 -0.776,0.291 -1.672,0.25 -2.445,-0.199 -0.773,-0.447 -1.26,-1.199 -1.394,-2.02 -0.754,-0.207 -1.547,-0.322 -2.366,-0.322 -1.408,0 -2.741,0.332 -3.922,0.918 l 1.415,2.537 c 0.762,-0.356 1.613,-0.555 2.507,-0.555 z m 0,11.908 c -0.895,0 -1.745,-0.197 -2.507,-0.553 l -1.415,2.537 c 1.181,0.588 2.514,0.916 3.922,0.916 0.819,0 1.612,-0.111 2.366,-0.32 0.134,-0.82 0.62,-1.572 1.394,-2.021 0.775,-0.447 1.669,-0.49 2.445,-0.195 1.507,-1.484 2.487,-3.5 2.631,-5.746 l -2.905,-0.041 c -0.268,3.04 -2.819,5.423 -5.931,5.423 z m 4.173,-13.179 c 0.974,0.561 2.221,0.229 2.782,-0.748 0.563,-0.971 0.229,-2.219 -0.745,-2.781 -0.976,-0.562 -2.221,-0.229 -2.784,0.746 -0.561,0.974 -0.229,2.22 0.747,2.783 z"
           id="path4683" />
        <g
           id="g4685">
          <path
             style="fill:#dd4814"
             inkscape:connector-curvature="0"
             d="m 104.798,134.53 c -1.725,0.432 -3.999,0.889 -6.826,1.374 -2.83,0.483 -6.102,0.726 -9.817,0.726 -3.23,0 -5.952,-0.472 -8.159,-1.413 -2.209,-0.941 -3.986,-2.274 -5.332,-3.998 -1.348,-1.724 -2.316,-3.757 -2.908,-6.101 -0.594,-2.341 -0.889,-4.939 -0.889,-7.795 l 0,-23.589 7.513,0 0,21.973 c 0,5.117 0.808,8.779 2.424,10.986 1.616,2.211 4.334,3.314 8.159,3.314 0.809,0 1.642,-0.029 2.505,-0.083 0.86,-0.053 1.67,-0.122 2.425,-0.202 0.752,-0.081 1.439,-0.161 2.059,-0.242 0.619,-0.08 1.064,-0.173 1.334,-0.283 l 0,-35.463 7.514,0 0,40.796 z"
             id="path4687" />
          <path
             style="fill:#dd4814"
             inkscape:connector-curvature="0"
             d="m 123.134,95.591 c 0.915,-0.592 2.304,-1.211 4.161,-1.857 1.857,-0.646 3.999,-0.969 6.422,-0.969 3.016,0 5.696,0.539 8.039,1.615 2.342,1.078 4.322,2.584 5.938,4.523 1.614,1.939 2.839,4.256 3.675,6.947 0.834,2.695 1.253,5.656 1.253,8.888 0,3.392 -0.5,6.45 -1.494,9.168 -0.999,2.72 -2.412,5.021 -4.242,6.907 -1.832,1.885 -4.039,3.34 -6.625,4.362 -2.584,1.023 -5.493,1.535 -8.725,1.535 -3.502,0 -6.598,-0.244 -9.289,-0.728 -2.693,-0.485 -4.902,-0.97 -6.625,-1.454 l 0,-60.181 7.513,-1.293 0,22.537 z m 0,33.606 c 0.755,0.216 1.818,0.42 3.192,0.605 1.373,0.191 3.082,0.284 5.129,0.284 4.039,0 7.271,-1.334 9.693,-3.999 2.425,-2.666 3.637,-6.45 3.637,-11.349 0,-2.153 -0.216,-4.173 -0.646,-6.062 -0.432,-1.883 -1.132,-3.514 -2.102,-4.885 -0.969,-1.375 -2.222,-2.451 -3.756,-3.232 -1.534,-0.781 -3.38,-1.172 -5.533,-1.172 -2.049,0 -3.932,0.352 -5.654,1.051 -1.727,0.701 -3.045,1.428 -3.96,2.182 l 0,26.577 z"
             id="path4689" />
          <path
             style="fill:#dd4814"
             inkscape:connector-curvature="0"
             d="m 194.546,134.53 c -1.725,0.432 -4,0.889 -6.826,1.374 -2.827,0.483 -6.1,0.726 -9.816,0.726 -3.23,0 -5.95,-0.472 -8.158,-1.413 -2.209,-0.941 -3.986,-2.274 -5.331,-3.998 -1.348,-1.724 -2.315,-3.757 -2.909,-6.101 -0.593,-2.341 -0.889,-4.939 -0.889,-7.795 l 0,-23.589 7.512,0 0,21.973 c 0,5.117 0.809,8.779 2.424,10.986 1.617,2.211 4.336,3.314 8.159,3.314 0.81,0 1.644,-0.029 2.505,-0.083 0.859,-0.053 1.668,-0.122 2.424,-0.202 0.754,-0.081 1.44,-0.161 2.061,-0.242 0.618,-0.08 1.062,-0.173 1.331,-0.283 l 0,-35.463 7.514,0 0,40.796 z"
             id="path4691" />
          <path
             style="fill:#dd4814"
             inkscape:connector-curvature="0"
             d="m 205.37,94.947 c 1.723,-0.432 4.01,-0.889 6.867,-1.375 2.852,-0.484 6.138,-0.727 9.854,-0.727 3.34,0 6.113,0.473 8.32,1.414 2.208,0.943 3.972,2.262 5.293,3.959 1.317,1.695 2.246,3.729 2.786,6.098 0.538,2.373 0.808,4.984 0.808,7.837 l 0,23.588 -7.513,0 0,-21.973 c 0,-2.584 -0.176,-4.791 -0.525,-6.624 -0.351,-1.833 -0.929,-3.313 -1.737,-4.442 -0.808,-1.133 -1.885,-1.953 -3.231,-2.465 -1.346,-0.514 -3.018,-0.768 -5.007,-0.768 -0.811,0 -1.645,0.027 -2.504,0.08 -0.862,0.055 -1.686,0.121 -2.464,0.203 -0.784,0.08 -1.481,0.176 -2.102,0.281 -0.62,0.109 -1.063,0.189 -1.333,0.242 l 0,35.464 -7.512,0 0,-40.792 z"
             id="path4693" />
          <path
             style="fill:#dd4814"
             inkscape:connector-curvature="0"
             d="m 256.665,93.734 15.914,0 0,6.301 -15.914,0 0,19.388 c 0,2.1 0.161,3.84 0.485,5.212 0.324,1.372 0.809,2.451 1.454,3.229 0.646,0.781 1.452,1.333 2.423,1.656 0.97,0.324 2.1,0.487 3.392,0.487 2.314,0 4.147,-0.258 5.494,-0.771 1.345,-0.511 2.262,-0.874 2.748,-1.09 l 1.614,6.141 c -0.755,0.378 -2.088,0.863 -3.999,1.453 -1.912,0.593 -4.078,0.889 -6.502,0.889 -2.856,0 -5.212,-0.362 -7.07,-1.089 -1.856,-0.729 -3.351,-1.817 -4.482,-3.273 -1.131,-1.453 -1.925,-3.243 -2.382,-5.372 -0.46,-2.126 -0.688,-4.59 -0.688,-7.391 l 0,-37.483 7.513,-1.293 0,13.006 z"
             id="path4695" />
          <path
             style="fill:#dd4814"
             inkscape:connector-curvature="0"
             d="m 313.455,134.53 c -1.726,0.432 -3.999,0.889 -6.826,1.374 -2.827,0.483 -6.101,0.726 -9.814,0.726 -3.232,0 -5.952,-0.472 -8.161,-1.413 -2.209,-0.941 -3.986,-2.274 -5.33,-3.998 -1.348,-1.724 -2.316,-3.757 -2.91,-6.101 -0.592,-2.341 -0.889,-4.939 -0.889,-7.795 l 0,-23.589 7.515,0 0,21.973 c 0,5.117 0.808,8.779 2.424,10.986 1.614,2.211 4.334,3.314 8.159,3.314 0.807,0 1.641,-0.029 2.504,-0.083 0.859,-0.053 1.667,-0.122 2.422,-0.202 0.754,-0.081 1.441,-0.161 2.061,-0.242 0.617,-0.08 1.063,-0.173 1.334,-0.283 l 0,-35.463 7.513,0 0,40.796 z"
             id="path4697" />
        </g>
      </g>
    </g>
    <rect
       rx="9.9184027"
       ry="9.9184027"
       y="352.44391"
       x="210.08159"
       height="40.03986"
       width="109.13123"
       id="rect4699"
       style="opacity:1;fill:#ffffff;fill-opacity:1;stroke:#003399;stroke-width:1.16318953" />
    <text
       sodipodi:linespacing="125%"
       id="text4701"
       y="369.37247"
       x="264.04883"
       style="font-style:normal;font-weight:normal;font-size:10px;line-height:125%;font-family:sans-serif;text-align:center;letter-spacing:0px;word-spacing:0px;text-anchor:middle;fill:#000000;fill-opacity:1;stroke:none;stroke-width:1px;stroke-linecap:butt;stroke-linejoin:miter;stroke-opacity:1"
       xml:space="preserve"><tspan
         y="369.37247"
         x="264.04883"
         id="tspan4703"
         sodipodi:role="line">pre</tspan><tspan
         id="tspan4705"
         y="381.87247"
         x="264.04883"
         sodipodi:role="line">192.168.1.51</tspan></text>
    <rect
       ry="8.3752298"
       rx="8.3752298"
       y="442.36224"
       x="529.8985"
       height="108.95319"
       width="150.39952"
       id="rect4769"
       style="opacity:1;fill:#6598ff;fill-opacity:0.19607843;stroke:#003399;stroke-width:0.99999988" />
    <g
       id="g4771"
       transform="matrix(0.38345525,0,0,0.38345525,523.89831,483.74475)">
      <g
         id="g4773" />
      <g
         id="g4775" />
      <g
         id="g4777" />
      <g
         id="g4779" />
      <g
         id="g4781">
        <circle
           id="circle4783"
           r="16.966"
           cy="90.016998"
           cx="337.36499"
           style="fill:#dd4814" />
        <path
           id="path4785"
           d="m 326.783,87.978 c -1.127,0 -2.036,0.912 -2.036,2.039 0,1.123 0.909,2.037 2.036,2.037 1.128,0 2.039,-0.914 2.039,-2.037 0,-1.127 -0.911,-2.039 -2.039,-2.039 z m 14.555,9.266 c -0.976,0.559 -1.308,1.807 -0.747,2.779 0.563,0.977 1.809,1.309 2.784,0.748 0.975,-0.562 1.31,-1.809 0.747,-2.783 -0.563,-0.975 -1.81,-1.309 -2.784,-0.744 z m -10.125,-7.227 c 0,-2.016 0.998,-3.797 2.529,-4.873 l -1.488,-2.498 c -1.784,1.191 -3.112,3.014 -3.664,5.148 0.646,0.525 1.055,1.324 1.055,2.223 0,0.893 -0.408,1.691 -1.055,2.219 0.552,2.133 1.88,3.955 3.664,5.146 l 1.488,-2.496 c -1.531,-1.076 -2.529,-2.855 -2.529,-4.869 z m 5.952,-5.957 c 3.112,0 5.663,2.385 5.931,5.43 l 2.905,-0.047 c -0.144,-2.244 -1.124,-4.26 -2.631,-5.742 -0.776,0.291 -1.672,0.25 -2.445,-0.199 -0.773,-0.447 -1.26,-1.199 -1.394,-2.02 -0.754,-0.207 -1.547,-0.322 -2.366,-0.322 -1.408,0 -2.741,0.332 -3.922,0.918 l 1.415,2.537 c 0.762,-0.356 1.613,-0.555 2.507,-0.555 z m 0,11.908 c -0.895,0 -1.745,-0.197 -2.507,-0.553 l -1.415,2.537 c 1.181,0.588 2.514,0.916 3.922,0.916 0.819,0 1.612,-0.111 2.366,-0.32 0.134,-0.82 0.62,-1.572 1.394,-2.021 0.775,-0.447 1.669,-0.49 2.445,-0.195 1.507,-1.484 2.487,-3.5 2.631,-5.746 l -2.905,-0.041 c -0.268,3.04 -2.819,5.423 -5.931,5.423 z m 4.173,-13.179 c 0.974,0.561 2.221,0.229 2.782,-0.748 0.563,-0.971 0.229,-2.219 -0.745,-2.781 -0.976,-0.562 -2.221,-0.229 -2.784,0.746 -0.561,0.974 -0.229,2.22 0.747,2.783 z"
           inkscape:connector-curvature="0"
           style="fill:#ffffff" />
        <g
           id="g4787">
          <path
             id="path4789"
             d="m 104.798,134.53 c -1.725,0.432 -3.999,0.889 -6.826,1.374 -2.83,0.483 -6.102,0.726 -9.817,0.726 -3.23,0 -5.952,-0.472 -8.159,-1.413 -2.209,-0.941 -3.986,-2.274 -5.332,-3.998 -1.348,-1.724 -2.316,-3.757 -2.908,-6.101 -0.594,-2.341 -0.889,-4.939 -0.889,-7.795 l 0,-23.589 7.513,0 0,21.973 c 0,5.117 0.808,8.779 2.424,10.986 1.616,2.211 4.334,3.314 8.159,3.314 0.809,0 1.642,-0.029 2.505,-0.083 0.86,-0.053 1.67,-0.122 2.425,-0.202 0.752,-0.081 1.439,-0.161 2.059,-0.242 0.619,-0.08 1.064,-0.173 1.334,-0.283 l 0,-35.463 7.514,0 0,40.796 z"
             inkscape:connector-curvature="0"
             style="fill:#dd4814" />
          <path
             id="path4791"
             d="m 123.134,95.591 c 0.915,-0.592 2.304,-1.211 4.161,-1.857 1.857,-0.646 3.999,-0.969 6.422,-0.969 3.016,0 5.696,0.539 8.039,1.615 2.342,1.078 4.322,2.584 5.938,4.523 1.614,1.939 2.839,4.256 3.675,6.947 0.834,2.695 1.253,5.656 1.253,8.888 0,3.392 -0.5,6.45 -1.494,9.168 -0.999,2.72 -2.412,5.021 -4.242,6.907 -1.832,1.885 -4.039,3.34 -6.625,4.362 -2.584,1.023 -5.493,1.535 -8.725,1.535 -3.502,0 -6.598,-0.244 -9.289,-0.728 -2.693,-0.485 -4.902,-0.97 -6.625,-1.454 l 0,-60.181 7.513,-1.293 0,22.537 z m 0,33.606 c 0.755,0.216 1.818,0.42 3.192,0.605 1.373,0.191 3.082,0.284 5.129,0.284 4.039,0 7.271,-1.334 9.693,-3.999 2.425,-2.666 3.637,-6.45 3.637,-11.349 0,-2.153 -0.216,-4.173 -0.646,-6.062 -0.432,-1.883 -1.132,-3.514 -2.102,-4.885 -0.969,-1.375 -2.222,-2.451 -3.756,-3.232 -1.534,-0.781 -3.38,-1.172 -5.533,-1.172 -2.049,0 -3.932,0.352 -5.654,1.051 -1.727,0.701 -3.045,1.428 -3.96,2.182 l 0,26.577 z"
             inkscape:connector-curvature="0"
             style="fill:#dd4814" />
          <path
             id="path4793"
             d="m 194.546,134.53 c -1.725,0.432 -4,0.889 -6.826,1.374 -2.827,0.483 -6.1,0.726 -9.816,0.726 -3.23,0 -5.95,-0.472 -8.158,-1.413 -2.209,-0.941 -3.986,-2.274 -5.331,-3.998 -1.348,-1.724 -2.315,-3.757 -2.909,-6.101 -0.593,-2.341 -0.889,-4.939 -0.889,-7.795 l 0,-23.589 7.512,0 0,21.973 c 0,5.117 0.809,8.779 2.424,10.986 1.617,2.211 4.336,3.314 8.159,3.314 0.81,0 1.644,-0.029 2.505,-0.083 0.859,-0.053 1.668,-0.122 2.424,-0.202 0.754,-0.081 1.44,-0.161 2.061,-0.242 0.618,-0.08 1.062,-0.173 1.331,-0.283 l 0,-35.463 7.514,0 0,40.796 z"
             inkscape:connector-curvature="0"
             style="fill:#dd4814" />
          <path
             id="path4795"
             d="m 205.37,94.947 c 1.723,-0.432 4.01,-0.889 6.867,-1.375 2.852,-0.484 6.138,-0.727 9.854,-0.727 3.34,0 6.113,0.473 8.32,1.414 2.208,0.943 3.972,2.262 5.293,3.959 1.317,1.695 2.246,3.729 2.786,6.098 0.538,2.373 0.808,4.984 0.808,7.837 l 0,23.588 -7.513,0 0,-21.973 c 0,-2.584 -0.176,-4.791 -0.525,-6.624 -0.351,-1.833 -0.929,-3.313 -1.737,-4.442 -0.808,-1.133 -1.885,-1.953 -3.231,-2.465 -1.346,-0.514 -3.018,-0.768 -5.007,-0.768 -0.811,0 -1.645,0.027 -2.504,0.08 -0.862,0.055 -1.686,0.121 -2.464,0.203 -0.784,0.08 -1.481,0.176 -2.102,0.281 -0.62,0.109 -1.063,0.189 -1.333,0.242 l 0,35.464 -7.512,0 0,-40.792 z"
             inkscape:connector-curvature="0"
             style="fill:#dd4814" />
          <path
             id="path4797"
             d="m 256.665,93.734 15.914,0 0,6.301 -15.914,0 0,19.388 c 0,2.1 0.161,3.84 0.485,5.212 0.324,1.372 0.809,2.451 1.454,3.229 0.646,0.781 1.452,1.333 2.423,1.656 0.97,0.324 2.1,0.487 3.392,0.487 2.314,0 4.147,-0.258 5.494,-0.771 1.345,-0.511 2.262,-0.874 2.748,-1.09 l 1.614,6.141 c -0.755,0.378 -2.088,0.863 -3.999,1.453 -1.912,0.593 -4.078,0.889 -6.502,0.889 -2.856,0 -5.212,-0.362 -7.07,-1.089 -1.856,-0.729 -3.351,-1.817 -4.482,-3.273 -1.131,-1.453 -1.925,-3.243 -2.382,-5.372 -0.46,-2.126 -0.688,-4.59 -0.688,-7.391 l 0,-37.483 7.513,-1.293 0,13.006 z"
             inkscape:connector-curvature="0"
             style="fill:#dd4814" />
          <path
             id="path4799"
             d="m 313.455,134.53 c -1.726,0.432 -3.999,0.889 -6.826,1.374 -2.827,0.483 -6.101,0.726 -9.814,0.726 -3.232,0 -5.952,-0.472 -8.161,-1.413 -2.209,-0.941 -3.986,-2.274 -5.33,-3.998 -1.348,-1.724 -2.316,-3.757 -2.91,-6.101 -0.592,-2.341 -0.889,-4.939 -0.889,-7.795 l 0,-23.589 7.515,0 0,21.973 c 0,5.117 0.808,8.779 2.424,10.986 1.614,2.211 4.334,3.314 8.159,3.314 0.807,0 1.641,-0.029 2.504,-0.083 0.859,-0.053 1.667,-0.122 2.422,-0.202 0.754,-0.081 1.441,-0.161 2.061,-0.242 0.617,-0.08 1.063,-0.173 1.334,-0.283 l 0,-35.463 7.513,0 0,40.796 z"
             inkscape:connector-curvature="0"
             style="fill:#dd4814" />
        </g>
      </g>
    </g>
    <rect
       style="opacity:1;fill:#ffffff;fill-opacity:1;stroke:#003399;stroke-width:1.16318953"
       id="rect4801"
       width="109.13123"
       height="40.03986"
       x="550.0816"
       y="462.44391"
       ry="9.9184027"
       rx="9.9184027" />
    <text
       xml:space="preserve"
       style="font-style:normal;font-weight:normal;font-size:10px;line-height:125%;font-family:sans-serif;text-align:center;letter-spacing:0px;word-spacing:0px;text-anchor:middle;fill:#000000;fill-opacity:1;stroke:none;stroke-width:1px;stroke-linecap:butt;stroke-linejoin:miter;stroke-opacity:1"
       x="604.04883"
       y="479.37247"
       id="text4803"
       sodipodi:linespacing="125%"><tspan
         sodipodi:role="line"
         id="tspan4805"
         x="604.04883"
         y="479.37247">prod</tspan><tspan
         sodipodi:role="line"
         x="604.04883"
         y="491.87247"
         id="tspan4807">example.org</tspan></text>
    <path
       inkscape:connector-curvature="0"
       id="path4813"
       d="m 100,442.3623 90,60"
       style="fill:#003399;fill-rule:evenodd;stroke:#003399;stroke-width:5;stroke-linecap:butt;stroke-linejoin:miter;stroke-miterlimit:4;stroke-dasharray:15, 5;stroke-dashoffset:0;stroke-opacity:1" />
    <path
       style="fill:#003399;fill-rule:evenodd;stroke:#003399;stroke-width:5;stroke-linecap:butt;stroke-linejoin:miter;stroke-miterlimit:4;stroke-dasharray:15, 5;stroke-dashoffset:0;stroke-opacity:1"
       d="m 264,442.3623 -90,60"
       id="path4815"
       inkscape:connector-curvature="0" />
    <path
       sodipodi:nodetypes="cc"
       inkscape:connector-curvature="0"
       id="path4817"
       d="M 366.8563,503.27751 228.55362,502.47296"
       style="fill:#003399;fill-rule:evenodd;stroke:#003399;stroke-width:5;stroke-linecap:butt;stroke-linejoin:miter;stroke-miterlimit:4;stroke-dasharray:15, 5;stroke-dashoffset:0;stroke-opacity:1" />
    <path
       style="fill:#003399;fill-rule:evenodd;stroke:#003399;stroke-width:5;stroke-linecap:butt;stroke-linejoin:miter;stroke-miterlimit:4;stroke-dasharray:15, 5;stroke-dashoffset:0;stroke-opacity:1"
       d="m 528.89308,502.14098 -80.33946,0.33198"
       id="path4819"
       inkscape:connector-curvature="0"
       sodipodi:nodetypes="cc" />
    <path
       sodipodi:nodetypes="cc"
       inkscape:connector-curvature="0"
       id="path4821"
       d="m 182.55736,472.13724 0.33198,80.33946"
       style="fill:#003399;fill-rule:evenodd;stroke:#003399;stroke-width:5;stroke-linecap:butt;stroke-linejoin:miter;stroke-miterlimit:4;stroke-dasharray:15, 5;stroke-dashoffset:0;stroke-opacity:1" />
    <g
       id="g4756">
      <path
         inkscape:connector-curvature="0"
         id="path4748"
         d="m 192.03324,456.65717 c -1.31155,0 -2.60971,0.0998 -3.88868,0.29297 -1.27896,0.19321 -2.53842,0.47961 -3.76757,0.85352 -1.22915,0.3739 -2.42774,0.83488 -3.58985,1.37695 -1.1621,0.54207 -2.2874,1.16556 -3.36523,1.86328 -1.07784,0.69772 -2.10961,1.46969 -3.08594,2.31055 -0.97633,0.84085 -1.89631,1.74924 -2.75391,2.7207 -0.8576,0.97146 -1.6514,2.00615 -2.37304,3.0957 -0.72164,1.08955 -1.371,2.23457 -1.93946,3.42969 l -1.78125,3.75391 -3.69922,-1.86328 c -0.84925,-0.43833 -1.73997,-0.76717 -2.65429,-0.98633 -0.91432,-0.21917 -1.85174,-0.33008 -2.79688,-0.33008 -1.49304,0 -2.92938,0.30451 -4.25976,0.85156 -1.33039,0.54705 -2.55463,1.3385 -3.62305,2.31446 -1.06841,0.97595 -1.98035,2.13515 -2.6875,3.42187 -0.70713,1.28672 -1.21046,2.70034 -1.45702,4.17969 l -0.41016,2.41015 -2.30079,0.82227 c -2.05463,0.71228 -3.94264,1.70016 -5.61718,2.91797 -1.67453,1.2178 -3.1364,2.66514 -4.34179,4.29687 -1.2054,1.63174 -2.15357,3.44829 -2.80078,5.40235 -0.32361,0.97702 -0.57092,1.98886 -0.73829,3.02929 -0.16736,1.04044 -0.2539,2.10879 -0.2539,3.20118 0,1.41085 0.14078,2.79509 0.41211,4.13672 0.27133,1.34162 0.67234,2.64103 1.1875,3.88281 0.51516,1.24177 1.14547,2.42578 1.87695,3.53711 0.73149,1.11133 1.56407,2.14933 2.48438,3.09961 0.92031,0.95027 1.92813,1.81365 3.00976,2.57226 1.08163,0.75862 2.23768,1.41287 3.45313,1.94922 1.21545,0.53635 2.49072,0.9548 3.8125,1.23828 1.32176,0.28348 2.68926,0.43164 4.08983,0.43164 l 74.48828,0 0.87695,-0.10937 c 1.25676,-0.007 2.48254,-0.1468 3.66797,-0.40625 1.18544,-0.25946 2.33032,-0.63828 3.41993,-1.12305 1.0896,-0.48477 2.12448,-1.07502 3.09375,-1.75781 0.96926,-0.6828 1.87283,-1.45897 2.69726,-2.3125 0.82443,-0.85354 1.56953,-1.78427 2.22461,-2.78125 0.65508,-0.99699 1.22042,-2.05873 1.68164,-3.17188 0.46123,-1.11314 0.81964,-2.27844 1.0625,-3.48047 0.24287,-1.20202 0.36914,-2.44147 0.36914,-3.70507 0,-1.26361 -0.12325,-2.49701 -0.35937,-3.68946 -0.23613,-1.19244 -0.58549,-2.34431 -1.03516,-3.4414 -0.44967,-1.0971 -0.99999,-2.13963 -1.64062,-3.11719 -0.64064,-0.97756 -1.37067,-1.88881 -2.17969,-2.72266 -0.80902,-0.83384 -1.69752,-1.58992 -2.65235,-2.25586 -0.95482,-0.66594 -1.97664,-1.24294 -3.05468,-1.71679 -1.07805,-0.47386 -2.21193,-0.84594 -3.39063,-1.10352 -1.17869,-0.25758 -2.40144,-0.40085 -3.6582,-0.41797 l -4.16406,-0.0273 c 0,0 0.0547,-1.91698 0.0547,-5.56055 0,-1.90397 -0.19523,-3.7588 -0.5664,-5.54687 -0.37118,-1.78808 -0.91912,-3.50919 -1.62305,-5.14649 -0.70393,-1.63729 -1.56423,-3.19095 -2.5625,-4.64258 -0.99827,-1.45162 -2.13448,-2.80212 -3.38867,-4.0332 -1.25419,-1.23107 -2.62596,-2.34272 -4.09766,-3.31836 -1.47169,-0.97563 -3.04258,-1.81469 -4.69336,-2.5 -1.65078,-0.68531 -3.38238,-1.21607 -5.17382,-1.57617 -1.79145,-0.3601 -3.64342,-0.54883 -5.53711,-0.54883 z"
         style="opacity:1;fill:#6598ff;fill-opacity:1;stroke:#003399;stroke-width:0.9590295" />
      <text
         sodipodi:linespacing="125%"
         id="text4750"
         y="505.46649"
         x="185.69139"
         style="font-style:normal;font-variant:normal;font-weight:bold;font-stretch:normal;font-size:21.08151054px;line-height:125%;font-family:sans-serif;-inkscape-font-specification:'sans-serif Bold';text-align:center;letter-spacing:0px;word-spacing:0px;text-anchor:middle;fill:#ffffff;fill-opacity:1;stroke:none;stroke-width:1px;stroke-linecap:butt;stroke-linejoin:miter;stroke-opacity:1"
         xml:space="preserve"><tspan
           y="505.46649"
           x="185.69139"
           id="tspan4752"
           sodipodi:role="line">LAN</tspan></text>
    </g>
    <path
       inkscape:connector-curvature="0"
       id="path4763"
       d="m 432.03324,456.65717 c -1.31155,0 -2.60971,0.0998 -3.88868,0.29297 -1.27896,0.19321 -2.53842,0.47961 -3.76757,0.85352 -1.22915,0.3739 -2.42774,0.83488 -3.58985,1.37695 -1.1621,0.54207 -2.2874,1.16556 -3.36523,1.86328 -1.07784,0.69772 -2.10961,1.46969 -3.08594,2.31055 -0.97633,0.84085 -1.89631,1.74924 -2.75391,2.7207 -0.8576,0.97146 -1.6514,2.00615 -2.37304,3.0957 -0.72164,1.08955 -1.371,2.23457 -1.93946,3.42969 l -1.78125,3.75391 -3.69922,-1.86328 c -0.84925,-0.43833 -1.73997,-0.76717 -2.65429,-0.98633 -0.91432,-0.21917 -1.85174,-0.33008 -2.79688,-0.33008 -1.49304,0 -2.92938,0.30451 -4.25976,0.85156 -1.33039,0.54705 -2.55463,1.3385 -3.62305,2.31446 -1.06841,0.97595 -1.98035,2.13515 -2.6875,3.42187 -0.70713,1.28672 -1.21046,2.70034 -1.45702,4.17969 l -0.41016,2.41015 -2.30079,0.82227 c -2.05463,0.71228 -3.94264,1.70016 -5.61718,2.91797 -1.67453,1.2178 -3.1364,2.66514 -4.34179,4.29687 -1.2054,1.63174 -2.15357,3.44829 -2.80078,5.40235 -0.32361,0.97702 -0.57092,1.98886 -0.73829,3.02929 -0.16736,1.04044 -0.2539,2.10879 -0.2539,3.20118 0,1.41085 0.14078,2.79509 0.41211,4.13672 0.27133,1.34162 0.67234,2.64103 1.1875,3.88281 0.51516,1.24177 1.14547,2.42578 1.87695,3.53711 0.73149,1.11133 1.56407,2.14933 2.48438,3.09961 0.92031,0.95027 1.92813,1.81365 3.00976,2.57226 1.08163,0.75862 2.23768,1.41287 3.45313,1.94922 1.21545,0.53635 2.49072,0.9548 3.8125,1.23828 1.32176,0.28348 2.68926,0.43164 4.08983,0.43164 l 74.48828,0 0.87695,-0.10937 c 1.25676,-0.007 2.48254,-0.1468 3.66797,-0.40625 1.18544,-0.25946 2.33032,-0.63828 3.41993,-1.12305 1.0896,-0.48477 2.12448,-1.07502 3.09375,-1.75781 0.96926,-0.6828 1.87283,-1.45897 2.69726,-2.3125 0.82443,-0.85354 1.56953,-1.78427 2.22461,-2.78125 0.65508,-0.99699 1.22042,-2.05873 1.68164,-3.17188 0.46123,-1.11314 0.81964,-2.27844 1.0625,-3.48047 0.24287,-1.20202 0.36914,-2.44147 0.36914,-3.70507 0,-1.26361 -0.12325,-2.49701 -0.35937,-3.68946 -0.23613,-1.19244 -0.58549,-2.34431 -1.03516,-3.4414 -0.44967,-1.0971 -0.99999,-2.13963 -1.64062,-3.11719 -0.64064,-0.97756 -1.37067,-1.88881 -2.17969,-2.72266 -0.80902,-0.83384 -1.69752,-1.58992 -2.65235,-2.25586 -0.95482,-0.66594 -1.97664,-1.24294 -3.05468,-1.71679 -1.07805,-0.47386 -2.21193,-0.84594 -3.39063,-1.10352 -1.17869,-0.25758 -2.40144,-0.40085 -3.6582,-0.41797 l -4.16406,-0.0273 c 0,0 0.0547,-1.91698 0.0547,-5.56055 0,-1.90397 -0.19523,-3.7588 -0.5664,-5.54687 -0.37118,-1.78808 -0.91912,-3.50919 -1.62305,-5.14649 -0.70393,-1.63729 -1.56423,-3.19095 -2.5625,-4.64258 -0.99827,-1.45162 -2.13448,-2.80212 -3.38867,-4.0332 -1.25419,-1.23107 -2.62596,-2.34272 -4.09766,-3.31836 -1.47169,-0.97563 -3.04258,-1.81469 -4.69336,-2.5 -1.65078,-0.68531 -3.38238,-1.21607 -5.17382,-1.57617 -1.79145,-0.3601 -3.64342,-0.54883 -5.53711,-0.54883 z"
       style="opacity:1;fill:#6598ff;fill-opacity:1;stroke:#003399;stroke-width:0.9590295" />
    <text
       sodipodi:linespacing="125%"
       id="text4765"
       y="505.46649"
       x="425.69141"
       style="font-style:normal;font-variant:normal;font-weight:bold;font-stretch:normal;font-size:21.08151054px;line-height:125%;font-family:sans-serif;-inkscape-font-specification:'sans-serif Bold';text-align:center;letter-spacing:0px;word-spacing:0px;text-anchor:middle;fill:#ffffff;fill-opacity:1;stroke:none;stroke-width:1px;stroke-linecap:butt;stroke-linejoin:miter;stroke-opacity:1"
       xml:space="preserve"><tspan
         y="505.46649"
         x="425.69141"
         id="tspan4767"
         sodipodi:role="line">Internet</tspan></text>
  </g>
  <style
     ns1:version="11.10-08131603"
     id="sozi-style">#sozi-toc text{fill:#eff;font-family:Verdana,sans-serif;font-size:12pt}#sozi-toc text:hover{fill:#0cf;cursor:pointer}#sozi-toc text.sozi-toc-current{fill:#fa4}#sozi-toc-background{stroke:#222;stroke-opacity:.1;stroke-width:10;fill:#222;fill-opacity:.9}.sozi-toc-arrow{fill:#eff;fill-opacity:.75;stroke:none}.sozi-toc-arrow:hover{fill:#0cf}</style>
</svg>
